<mxfile host="app.diagrams.net" agent="Mozilla/5.0 (X11; Linux x86_64) AppleWebKit/537.36 (KHTML, like Gecko) Chrome/132.0.0.0 Safari/537.36" version="26.0.13">
  <diagram name="Strona-1" id="xLT7MXCU-gkSTZtKGQad">
    <mxGraphModel dx="1384" dy="754" grid="1" gridSize="10" guides="1" tooltips="1" connect="1" arrows="1" fold="1" page="1" pageScale="1" pageWidth="827" pageHeight="1169" math="0" shadow="0">
      <root>
        <mxCell id="0" />
        <mxCell id="1" parent="0" />
        <mxCell id="zkTMenMnNY8oFGBPqEzL-1" value="gitlab-ci" style="rounded=0;whiteSpace=wrap;html=1;spacingLeft=20;" vertex="1" parent="1">
          <mxGeometry x="390" y="390" width="120" height="60" as="geometry" />
        </mxCell>
        <mxCell id="zkTMenMnNY8oFGBPqEzL-2" value="Repozytorium zawierający &lt;br&gt;konfiguracje środowiska" style="text;html=1;align=center;verticalAlign=middle;resizable=0;points=[];autosize=1;strokeColor=none;fillColor=none;" vertex="1" parent="1">
          <mxGeometry x="20" y="394.22" width="160" height="40" as="geometry" />
        </mxCell>
        <mxCell id="zkTMenMnNY8oFGBPqEzL-3" value="Modules" style="rounded=0;whiteSpace=wrap;html=1;spacingLeft=20;" vertex="1" parent="1">
          <mxGeometry x="390" y="470" width="120" height="60" as="geometry" />
        </mxCell>
        <mxCell id="zkTMenMnNY8oFGBPqEzL-4" value="" style="shape=image;verticalLabelPosition=bottom;labelBackgroundColor=default;verticalAlign=top;aspect=fixed;imageAspect=0;image=data:image/png,iVBORw0KGgoAAAANSUhEUgAAAOEAAAEACAYAAABF3BHpAAAABGdBTUEAALGPC/xhBQAAACBjSFJNAAB6JgAAgIQAAPoAAACA6AAAdTAAAOpgAAA6mAAAF3CculE8AAAAB3RJTUUH5godDyci4PNxYAAAAAZiS0dEAAAAAAAA+UO7fwAAF1tJREFUeNrtnQl0HNWZhbXa8oa3eMOADd66ZWKEvKirXkFC2CE444AhhMyhX4kBQiYDZwYmxMOWDMMyDMMWIGEIdmBId4uAw+6AkxyWYTGYsBqTBDDUq255Q9jGi2wjz32taiMTZNRSd1Uv955zjziJu9Wqft/5/1tvqYqo5RwphRqAn1UVFEX5L2k5TwHC5/HzONtyhkQjKcJIUT5D+IxtqV3wZkB4jzTdmbZwh0Qb2ip5dSjKXwgzTtmWe4k0ktNRIQfxClGU/xBq78T//oq0lA1PQF6s45WiKH8hzPgjQJiA59mmOw55sYZXjKL8hTDjVbZQ/4329AjbTI1EXuTNG4ryGULt7fByW7j/ZhvJxmYjOYBXj6L8hTDjTaiKj+BnMyrjQVFTsUWlKJ8hzDgJ/wpAniqbWodzSoOi/Icw45WoiNfZlnsMzKpIUQFAqN0OLwOMl0YtZxKvKkX5D+FnedFSi6Wlvh+NpIbx6lKU/xBqd8AOfDfy4jeRFTnRT1E+Q5jxDvh1vP+NaFMP4ZWmKP8hzFTFjfDTAPEi5MUDeMUpyl8Id69FhVfDj9uW813kxX145SnKXwi7rrpR8D22SJrIi/34DVCE0F8IM95qC7UCLeqVetUNvwWKEPoPofan8CfS0rv6VTPy4gh+GxQhDA7GLXo9qjTdryEv9ue3QhHCYNyBz7IBP++wLXd/23Srm40kvyCKEAZh5MQUIDzfFu4o7tKgCGGQMFrqZQA5F63qMG4kpghhkBbqTmkkD41aDtejUoQwwLzYCl+OyhgCjAP5zVGEMBjvBISvok2V8JRoJFXLb5AihMFYzy8+ZAv3W7ZIjkNerOY3SRHCYKy3TF2P6qifpzGc3yZFCIPxDlTFVwHhj+FZyIs8NZwihAF5I2B8wracH9hCTWVepAhhcE4Bxnvg+baRGsP5RYoQBmO9ZepNKdyb0KIeBXNKgyKEAXkz/AKq4iVRPb9oKt5FpQhhQF6b3tUv1Hly1tqhaFH5xVOEMCB/iL/317blfpvfPEUIA5zS8E4Nv7XZSB7KEUARwgBX3aRPDbfUgmgkNZIjgSKEwe3qXwcvRV48DVmRj3ujCGGALarCtYhHLcfiqKAIYUDbpeBt8PvIiz/hszQoQhgsjL9FReRRjBQhDNAP8RFvFCEkhBQhJITdXTP8f7UwHw9O9UkNExdXRUKxakLYOwi/Li01NSrUwKipCCOVtaz6xDBjWssMIxSbQgh7ASGu2a2A8EUp1Dm2UJPlzHU8G5XqkYxwYrAIx6cCwmut+vgaKxQ7jhD2EkJvxY0+jnGpNN3j9anhHGJUd0LbWWuF45MA4Lnw6wBwJ7wLEB5PCPsKYfqQYmcTILwLlVE0G0kugaO65r5qMxQfD/BOAoQPArxP0vBlTAhzA+Hus1GFWmUL9zK0qrOjkVQdh2CZ575wfKQIJ44EgDcDuOQe8BHCvECYcTsgfAZt6lm23kjc0Ma8WG7whWKDRH28EZBdAr8B7/hCAAlh3iDMuA0QxlAdv4P3Yl4sk9yHqjcFFfBcALYE3tgtfITQFwjTuzSkXotqqZv12ah8lkbJ5r4qI9QyBlDNh++FU18KHyH0DcKMt8AvwpejOs7kg1BLRyKUGIjcdzSA+hm8osfwEULfIcz4Izt9Nqr7A9tMTeTx/UWd+2rgQ9B6LgBML8DbswaQEAYCYZezblSLzos8vr/ocl+FEY6NFfXp3PcEvLZX8BHCwCHMbCR+GzDehN91GMwpjWKogPWJeYAnAX/QJ/gIYUFAmPEGeDmy4mXSSE5CXuSJ4QUoI5xo8Ob7VvS69SSEBQthxmvwvn9AXjxbzlo3nGejFobM6S37dcl9n+QMPkJYkBCmH4IKu8iJjzQbycOIQKDTDgOQ+84EKH/0ct+nOQeQEBYkhF2fpfEe8uItUVPxmA2/c184LgDIr2G119UuhLCkIez6LI2VyIsXoj3lcxfzP+0wAbnvPwHHu/A2uCOvABLCooAwc/DURvzOZ5EX5xOVvEw7DAF85wCK1+AtvsBHCIsKwq4HFX+MvHgvPts0opOT3NfPDLXo1vMhuN1X+AhhUULY1auRF6+URnJf23RreCc1q5azElWvVoQT05D9fuFVvl2BmRAWLYQZvwYIz4xGUqPxebll6ktWupiAD+BNgC8SuZpsJ4RlD6H2NnyeR+Fj0KoOw+fmetQ9W86K2ZN/Uw3oxqACngwAlxUEfISwpCDMuBUt6n/hs80CjENQHXkKXEV6l8MIY1rL4VZ94u68TLYTQkL4BX7TFuoCW7ghGVldV6550ZzeMhBVL4zsdzUqYGvBwUcISxrCjB+Twj0DVXEiXFVG7aduPaeI+oQNCF8qWPgIYVlAqE+B05uJ70Kbqnf1jyr5O5/1iQNQ+U4ChA94Uw67CCEhLBAY1TvwVWhT5yArDiw1+IxwYiRaziMwqG/3jpboKAoACWH5QNhl5c1TaE1/aFvu9BKZduiPlnM2Kt9lgPDNnG4xIoSEMI8gfgzfBxhPazaS44s195mhBHJfeqnZk/CmooOPEJYthJ8tgUsfVKx+hjb1+KipiuYUOFS+sah6pwPA/83qVDNCSAgL1Prx4K/YOi+abiTa0FZbwMvN9INUjgKEt2HwvrP7WQ6EkBCWiPURG0vxd51faI8J9w7UnQ74LsegfRHeWhLwEUJC2M0uDYX29Dc6L+LvHx5w7quKTLtvrFWf0LlvaZ9PNSOEhLCIrHf16ymNO6VwDw/ioGIRSvQX4cTfYZAuht8vSfgIISHs4a7+12yhrrSN5FQ/DirW24zgWWg9b8IAXZn3oyUKBkLhPE7oCOFevB5/73NoUc+C98lj9hsj6uMXe08x2lDy8O0BoZGcZVvOr+DNhI8Q7iUvpgChvi5Hw7U5zH6DkPvO8E41W1c28O0B4cx11QBwDPr/b+Ei/54AEsK9uB1OYrz8MmokD0Je7Otys9kiHL/Pm+/bUXYAZiDU0hcTF7UWYXx/fZsaXkEICeFevFUfsWFb7vnIikN6sc3oAOS+a72bLu1lCd/nIcwIA68S7ocwPhW+ze5chU8ICWG3j3xD9/QCPLeHrecAMxw/2ztKvr2oFlr7BWFGtql0m9rfNl2BC/2gd9u6gxASwm7Wo36CLupudFTjuq1+odgcDLpHSm6yPV8Q7lEdI6nB0lTfw4V+yWtDOgghIfwCv4tr1tj9ms/YeRh0SYLXCwi7tKr7o0W9Wh/P7q057CCEhI8Q+gjh7lZVKANZ8V5cdMdrUwkhTQj9hDBdFRva6qTpnowLvwRe680jEUJCSAj9grBLXhyBAfmv+AJegDeVUItKCAlhcUCYUbORPARt6s34It4qkRaVEBLC4oJwd160nLnwPfhCPiCEhJAQBgBhukVtXD9YCnUuvpQnvbxICAkhIfQTQm86oxr+KgbrAnw5z3nbYgghISSEfkHYZeVNHfwN5MUb8CW9UUR5kRASwtKA0JvOqJJGchSyop7SWNS5Cp8QEkLaNwi7TGfUSFNNxgDWefFx73AhQkgICaHfwhc1UArViBb1R/jilsM7CCEhJIQBCFlxGHwEYLxJn/JFCAkhIQxA+vAgabjjpXDnSkst9lbdEEJCSAh9hzGSqsXA1nnxTFTGQmhRCSEhLC8Iu+ZFQDgNvtS2HDfAtaiEkBCWJ4RdtksNtY1kgxRKb5naSQgJISEMJi9WAcIR8LEY9MsIISEkhEHBaKpqDWOz6Z6HCpkkhISQEAagZiNZYc9ZXSMjqanIivoUuA15zouEkBASwr3cSe0nTVegOupT4LbkaVc/ISSEhLAHd1KH6SkN+P+8XRodhJAQEsJgVt5MsIWjT4H7q1cZCSEhJIQB3EmttYVqwkBY6J0C104ICSEhDCYvDpHCORUD4hF4TR/yIiEkhISwj3lxP1TGH3u7+jf2Ii8SQkJICHO08ma2bTk3YoC8mmWLSggJISHMYV6sk6Y6wcuLH/SwKhJCQkgI85AX9ZTG2Xbn/OIGQkgICWFwq29CXl58YS8tKiEkhIQwr1nRcqrgowDjNRg8bxNCQkgIg8mKlXLO6qFSqPkYQHrLlEsICSEhDGY6owaeArCaURmXeEdsEEJCSAgDWP42wDbdWQDxYgyoS6NCHUAICSEh9L9FrQKII5AXD4iaqo4QEkJCWKAihISQEBJCQkgICSEhJISEkBASQkJYxhDOWT1OmupKb4cGASSEWVuEYykzHP9HEY4PJFG9neg3Va00knp+8bE8nXNDCEvR4fgnVn3sDni8EU7UwAQqRxP+li3USm8tagchJISf86fwNlS/hyPTEoc0TFxcTWryMdkvVD/4n23LWYUBuY0QEkK4A96Cv/15OIr8N4yk+NGmNrVOlELdiUHZmoOzbghhEcOHvLcS1e+nZig2gXT4DaOp6qRwjkJefNCDcSchLBsI2+FVyH7/Y4bjEbSe/UhEgGo2kiNs0z0LberTGKTrS/wGTrlDuBNeDT8m6uOnRUKxISSgkPKi5UyG9ZTGKwX0IFRCmLvWcwP8NOC7ELlvP454f6CagFZzLAZdj+9yRSOpAdJ0v47Begf8Z3grISyJ1vN1ZL8bkPtmkAx/IbxIWuoatJlHytlrBkYb2rKZzhgFgL+DQZuAVQnlxXKCUE85fAjfjdx3InJfHanwe8XMZ8vWlsv0tIQ7O2uQTTUJvgDv8bsSWXlTLhDq1vMB/D3nRjjlUBAQ7vLayicAY7TZSE7MckqjX+fZqOoq+E/wdkJY0K3nMyIcuwS570BSUFgQZrwWQC1Em3pK1FQjs4IxkhoshXMi3uM2eFWRrropZQhXIvddBx8OV5KAwoVwl5fv9PK1GwCkpStdVjBazji87nS8/v4cPmGKEPbe+vMuQvU7dc6UlqHIfgSwCCDMWAP0FP7dAgzM6VnnRaEOhi+AnyWEgXiTqI8/bIXjzfh5oDm9hWs9ixDCXV5LuRbt6aPIi2djgI7Jqio2rtPH9wuAeAXe5z1C6Iu3wy9Z9bELzXB8hhFO8K5nkUOY8Q7vGRj3Asa5yH893j+Gf1sZNd3h+H0neHnxY0KYN7+PvHc9Ws8jAOFQjvLSgnBXl7uo+rTv62wzOQN5sSaLrFgtOx/39l3bcn5foLs0ihXCdfhscXieGY6Ni4RiNRzhpQthxm1oUZehKl4Ij8sqK1pOHUCcjtf9E97nTULYJ29F1dNTDhKfbaIVirH1LCMId3kLudcCJj2/OB+Dt8eLfdPbpYzkELxuDmC+Hu+TJIRZ2xH18QXGtES9GYoN4oguTwgz1pPzq1Hd7pKmeygyYM9bVFPpFnW4bbpH4vX3F8DBU8UAob7rucgMx2ejAu7TMHFxFUczIdydF/Ge79uW+1M5Z804Xe16+lmajWSN3dQ6FiA2o11d7t0IIoR7egfgewaf4Tj8HIrcR/gIYbdTGtvQZr4NS7jHIGpoAWEtqukE2TmlkSKEuw9WWouWUwK+Qch9nO8jhD3PjMh7T6DlbARcNT3dpYF2tgIQVgGGBnzGRfomkI9L4AoJQr3LoR1t5y0zD7p/JCDkShdC2GtvA4S3yqbW/dGq9s/2c9qmOh4t6is+fdZCgFDDtwm/60mAdzDbTkKYw6qoT3BzL0KVG40MmBWMqKKDAeL3vQUDW0oUQr27faMIx/6ElvNkTjcQwny5Xeq1pKZ7ClrV0Wg9s8o3+PfjpXB+jvf5ME+T/UFBuBm5720Rjl8Kj+boJIR+WE/2L5TCFfpZivqZij0GsXPlzdfQ4j7gzS9+WsQQbtOnmon6+EJjWryxYeJirnQhhP7fjQRMl6M6NmYz2Z/OikINgc9Bm/p0eh9kcUGoTzVz4cUAcJ45vWUfjkhCGKS347M8j8p4LmCcDAh6nBd1BZVNqQPxusv1MR05OAUu3xDqmy7r4afMcPx8I5zYlyOREBbSo9E+AohxVLb5gGrfbPIi/m0/vMbA33Q73uetPpwank8IN8MvI/tdg9w3C61nLUchISzU5xPqozFuti33KBlpHZbNyhsANBQwzsPrW2C3F3kxHxDq/X1/hu8U4dixkVBsMEcfVegQZqx3aVyRXuQtVFZVA9V0Eqx3aSzxJvuDgFBPObSh8rXgdWdYoRhbT6roINzlTUMsQZv6D4BjEpzNMrgaaboz8Xq9BG5ZD+cXcwXhDnipCMUvNkOxEEcbVcwQZqzSBw3rLVORVFbnZEZNtQ/+1qPxWn1w1btfclBxLiBcAV9l1cea+CAVqpQgzHgFPvdNyItHoNJltaKk2UiOs01XnwKnb/6s72Y9al8gbIV/IerjJ/FBKlQpQ5g5Be55tJpXAKxpWVXFhrZaABhOzy8KtfQLqmJvINQT7o8CPp379re40JoqAwgzW6Z0NXsUefFstJxZLfVKP9hGqEa89lJchxW9hRDgvSjCiQtEON4Ac8qBKisIP38KXAKt5lxUuuwWhlvOCFwHC1Xx56iQW7KA0LHC8f8ww3GzaWrLEB6oS5UzhF3vouq8eCMgOiSb62CbqhLezxbuKQDxhr1BKMKxvweIV8PH4r9HcZsRRQj/tkXdgBbzZX0KHGAam0VWrJBNrf3szuc1DtwLhCM0fMh9bD0pQvglp8DpvPgHieqWzUHFFEUIc58X1yHv3WsbyVnZHFRMUYQw97s0krJzy9QofvMUIQywMgLCt/B3fw+5b7A03Up9qBRFEcJA7PwREApbuAOjh37E6QWKEAZn9xbZ1DoFFXIARwRFCAMyAFwFny8ttS/aVJ5wRhHCwPKintKwnPlRU/Xn6KAIYXD+S1Qo7v+jCGGhPpWJogghIaQIISGkKEJICClCSAgpihASQooQEkKKIoSEkCKEhJCiCCEhpAghIaQoQkgIKUJICCmKEBJCihASQooihISQIoSEkKIIISGkCCEhpChCSAgpQkgIKYoQEkKKEBJCiiKEhJAihISQogghIaQIISGkKEJICClCSAgpihASQooQEkKKIoSEkCKEhJCiCCEhpAghIaQoQkgIKUJICCmKEBJCqkAgvBGDbhPBI4RUQLKF+iYG3XIPxA4CSAipABSNpEZL4fw7Bt87cDshJIRUUDBazgxUxvsxCB14JyGkqGDa00r4dNtylmIwpgghRQVRERvaKuXs1V+RpvoXDMhl8AZCSFFBwGiq2qhQjdJybsDAfA3eRggpKgA1G8nBtumegDZ1EQboe2WQFwkhVaB50XLGws0YpPrmzWpCSFHB5MVqabphaakFGKzPwhsJIUUFAaPlDEVWPBwD9lq0qW/h53ZCSFFBtKimGou8OA8D95fwGkJIUcG0qDWohpNgG/4dBvFmQkhRQcAYSdVJ4TQgL14IGF8v4ruohJAq/rwICCPw1bblfEQIKSq4vDgaefEYKdQDhJCigsuL1dJUE6RwT5eW8wYhpKhgsmJF1Ej2B4Qh5MUfoU1dSwgpKpisWAkQB2GQz0JWTMBbCCFFBZEVLadKGslh0nRPxIB/nhBSVDBZsQIgVkVNNRrV8YcY+H8poOM1CCFVhtXRVGFkxdu9jcQ7CCFFBVMd+wPEo9Gu/hYgrA1wsp8QUmUOYyQ1TAolAcNz3i6NTwkhRQUBo+Xo9ajXAoo34a2EkKKCy4sGWtQY4PirT1WREFLUF+TFAQDx2wBkCbyOEFJUcHnxK9JyLgMoz8BbCCFFBZMVK72Dim/xToHbQQgpKoisKJSe0pgLL/TyIiGkqACyYqVs0s/SSE9pPJyjvEgIKSprGE3VTwrnYLtzl8bTfcyLhJCieivvoOLD0qfAWWpFL/MiIaSoPudFyxmdntLozIspQkhRQbSokVQtsuJkaamzpOU8nsWDbQghReUURssZBAi/iqp4Earjyh6suiGEFJWXFtVUw5EX9anh18PrCSFFBVEVG9qqUQ3HSOEeJ4XzYDePByeEFOVPXnT2Q5t6hndQMSGkqIDyYh0gHO8dVLyJEFJUUHlRqEEykpohhYoRQooKJitWRGevqZSmOyhqJENoV/flVcle/w8fzf668seFPQAAACV0RVh0ZGF0ZTpjcmVhdGUAMjAyMi0xMC0yOVQxNTozOTozNCswMDowMNH7NnMAAAAldEVYdGRhdGU6bW9kaWZ5ADIwMjItMTAtMjlUMTU6Mzk6MzQrMDA6MDCgpo7PAAAAAElFTkSuQmCC;" vertex="1" parent="1">
          <mxGeometry x="400" y="485.78" width="25" height="28.44" as="geometry" />
        </mxCell>
        <mxCell id="zkTMenMnNY8oFGBPqEzL-5" value="Moduł terraformowy &lt;br&gt;z zapisaną logiką" style="text;html=1;align=center;verticalAlign=middle;resizable=0;points=[];autosize=1;strokeColor=none;fillColor=none;" vertex="1" parent="1">
          <mxGeometry x="510" y="480" width="130" height="40" as="geometry" />
        </mxCell>
        <mxCell id="zkTMenMnNY8oFGBPqEzL-6" style="edgeStyle=orthogonalEdgeStyle;rounded=0;orthogonalLoop=1;jettySize=auto;html=1;entryX=0.5;entryY=1;entryDx=0;entryDy=0;fillColor=#dae8fc;strokeColor=#6c8ebf;" edge="1" parent="1" source="zkTMenMnNY8oFGBPqEzL-8" target="zkTMenMnNY8oFGBPqEzL-19">
          <mxGeometry relative="1" as="geometry" />
        </mxCell>
        <mxCell id="zkTMenMnNY8oFGBPqEzL-7" style="edgeStyle=orthogonalEdgeStyle;rounded=0;orthogonalLoop=1;jettySize=auto;html=1;" edge="1" parent="1" source="zkTMenMnNY8oFGBPqEzL-8" target="zkTMenMnNY8oFGBPqEzL-23">
          <mxGeometry relative="1" as="geometry" />
        </mxCell>
        <mxCell id="zkTMenMnNY8oFGBPqEzL-8" value="terraform plan" style="rounded=0;whiteSpace=wrap;html=1;" vertex="1" parent="1">
          <mxGeometry x="210" y="520" width="120" height="60" as="geometry" />
        </mxCell>
        <mxCell id="zkTMenMnNY8oFGBPqEzL-9" value="" style="shape=image;verticalLabelPosition=bottom;labelBackgroundColor=default;verticalAlign=top;aspect=fixed;imageAspect=0;image=data:image/png,iVBORw0KGgoAAAANSUhEUgAAAQAAAADsCAYAAACbg3grAAAABGdBTUEAALGPC/xhBQAAACBjSFJNAAB6JgAAgIQAAPoAAACA6AAAdTAAAOpgAAA6mAAAF3CculE8AAAAB3RJTUUH5QUcCxAHgIEv1QAAAAZiS0dEAAAAAAAA+UO7fwAALMlJREFUeNrtfQmcVNWx97CIC2pcE40mktDn3HsTYz63xCxGpgdZJIIi7oogiCzzFEEUMCCibEZAQQHZhukePvLi82XxvWdi8mV5Mb6YvMQFJOzMTPdMz75290zPPbfnq7rdkyDM0j19b/ddqn6/clSGmdt1q+pU1al/VV6ezahxxLCBAa88DPj2cq/8LPAz8O+3wtdL8c/yiIhMpnKv8tmgVxqBuldeIK+Er5PhKyf9M9/4BwUK5PzyAuVd4M5PsVf+OfzZt/B7SFJE5hm/zMAB7C7zKtFP66C8P+CVRoVGyKeTlEwiEPBVIOw/AcdPcQAFigB+G76Hk6SITDL+z4OOFQHHutE/dAJ7IRq9kSRlzul/GnjdFSDoSPfC17kRXtIT8L2DSWJERlOZV54COlbdi/6BY5C3Bkewz5C0jPe+Egj4tz2c/l2Mf/YmfO8XSWJERhIaNRj3FtAvrRf9Q/4o4FW+SxIz2gEUKPcCh/oQPnIp8GiIAgaQ1IiMSz+Vb6Nxp6B/EYgU5oLDoIKgccbPzwDBrkxB+DoHCuRFFfn8TJIckUGn/6DyRPgfSU0H5V3l+dLnSHKGOQCJgVB/kaoDAP4P4MtIckSGnP758oXlXmVrGvr3UVmBci1JzrDii4JXf1VpvICGYIH8TUgDSHhEBuifLIMDOJSG/kUhZbgnNEKmK2kDwv8z4fR/po/iX2c3fQELgOkFEGUa/g8IeKWJoFNqevqnbICD61ySYMYOQL4EBPrHtISfyMP+H/AQkiBRhtHnaRDOv56u/sHfCcDXL5MEM3cAN4Ag29N+AXqnlkTXgUSZRQD58vmgTxXpH0BKJ6QBk0iCmTuAVf0RfoKlfyEJEmWkf17l5v7qH0QBPyIJZh6C7ev3C/Aq75AEiTLSvwJlW/8PIKU2NEI+n6TYTwqMlL8KQmzL4AUEywv4VSRJov4QGO+FoEOHMtA/FQ6hCSTJ/joAr7I0CfLp7wsIQwqxiCRJ1M/oE7tPGzLQP2wb3kIw4f4UX0aws8q88m/Tvv47CRsAL/EtiALoOoYo3dN/CIT/u9K+/juV91fkc2pKS/v0z5dvTPb1d2bIfy8vkEaQRInSoXKvwpPQ80z1DxvY7iaJpv0C5KWJED7jF9AIkUQhSZQoLf0rUO4ALjNA/zqANyGcnaSaeviPxZd/zzD8/2ce5pW3EEabKFVCYw0UKKsMCP+7+PcIZyfJphr+e5VbQGiHDRJ+F0b7WyRZohSjTxl05lcG6h/C2O8jiHpqp/9p8AKezvD67xSMNsI5EdZJEibq4/QfAKf/eNCZSgP1rxN+5vqKfH4OSbgv75svXVZeIO8xUvhJcMZWhHWShIl6PYC80tBAgfyc4fpXoPwO+Csk4T6orEC5IVG5N9wBHMLQjiRM1OsBVKB8EfjXJjiA2jKvUkAS7oVCI+TBkKtPTlZOjX4BKsI6aVQTUW/hP0QA30U8vwn6pyVg7TSpqufT36tcABHAbhOE3xUF/AQcDEGEibo//b3yYNCTNabpnw5rly8hSfdAYJxympN/0gQHyQ3BfPkCkjRRD+E/zp780EQH0IbwdpJ0jx5YechE4XdFATeTpIm6dwDSV/ozeyLNQTWrSNI9FwD/02wHgPBOkjRR9w5AXmi6/nmVT0jS3RcALwYBtZgeARQoh+B3URpA1F0N6o9Z0D+IMPj1JO1ThT8tQ+hvyhOD4XfdQxInOin8HwG6UZMF/cPbgBdJ4icQbvQt98pvGtT73/eQhgJlF0QBBM4gOjH8X27S9V93acD7CHcnqScp6JWGg2AOZkP4SX4f4Z4keaKE8XNMP9/J0gGEXBbIl2l/4D9fgF79r82iAwhBFDCZJE+UPP1HGww+63tSlVdeSpJPhP9DkjvXRRZfAP6uVyANoDCMCOtPi7IV/p+wxfrfEfZO3tcrXwPC+HMWhd/F7xA2gCiYzz9Xbmb3ac98OOBVxrr99B8IgngYuC4HL6ASYZ+E0Xb7AaTcZAr4LJWuQK/8NMLf3Vz8w60rm3Ig/K414s8h/JPMwKX6l5g98ajBsyfS4TcC+fIX3Fz8uwr4f3LlAJKwzyvIFNxJAa/8OYgASnKof8fBAd3oZgcwLofeV58UhPBPSgPcWvyTvwoOoCyH+ifAAcyESGSIC42fn1NeIK/NofC7eDXCQMkcXFf8GwQRwPQs3v33xCUIg3ehA5Avgw//Nws4gL2VXprV5sLi3+nA71hA/6rgORQ3OoAC+PAxC7yATkgDvkkm4bL8P59/IUvgs1Qg6g+50QFstITwExjtJWQSbosA5Duton8Ig3dhAcaQtV9GgTP+SCbhMv0rUH5knQNIaUU4vJsKgGMM3LpiBNfAM91EZuEOqsiXcfJvwEL6J+AQmu6m8H+TBaqvJ3IU4aBkGq6JPrH632wh/YtDRPJfuJHY+cWXkfKFFqn+nwzOeAeigIvIPJxNYGQ4+HNPlsFnqfDRcq/yNec7gMTevwqLCb8zAQeVR5OJOL34p3wN3vVfLah/iIeZ5oLwS16ZZehlymkAwkLJRBxf/JuRI/BZKhD1IoTHO1b4wXx+OXzIX1pQ+F3XgT+HNOBLZCaOLf6dB+95h3X1T/kzwuOdHH7dDh+y1MIv4Ag4gZFkKo4t/l0N7/g9C+sfTsWahjB5553+I9jpOAbJKt1/vWC0Z7oao+1QQqMKFCh3WjT8P5E3IUzegcU/+cvw4d6yuPCxLbMEYaJkMk7TP+lcHMdtef1LwOOvcmLxLx+n8NjAAZTBs15JJuOw9LNAwQPoXRs4gLZAgTzJUWlAIJ+fAaH1Aos1//TYE4AwUYSLktk4g6rzPQOCXnlsYimH5fUPeTPYy2ecVHy5uKxA+alNhN+pw0S9yhlkOk4pPsunwXt91Tb6V6DsB3bOqLCAV/k6fKB6G72AZoSLkuk4g0Jefp7eaWcf/Ys56jYKTtM5NhJ+YmCoV55BpuOYAnSB3fQP4fLOSQEKlP+22wso88q/INNxTAHwZfvpn1LqCOFX5Mtfgg/UYT8PrAQr3Dyy2THGz08HY9pnQ/0T8Oz2x6aA8OfZqPr6qTqAqzDajnUA0i02qz+dgFCVN9m7+DJCPgs+yG9sKPwucMYehI+SGdn6AHoJ3mO7HXUQnv1DiAIusXPx73p9+YE9HUCnDht1A0bbueE/Tp7+nU36T7qfGFwg32nn4sts4AYbO4BahI+SKdlV/+TxNj+AYhAFvGJL4Vfne86GD/BvNva+XZOCdlTkO6gryz2n/2AwnpU2LUB/aos1wuhtGP7L34aH/9Dmwkf+CyjS9WRStiv+SRABvOMA/StFGL2thJ9c+43hf5MDXkAr8JTQCJmwAbYq/sk4ebrMAfoXQxg9wultI/yAV7rY4pNX0uW1AS+lAXYhXLYJRvO4xWdPpMNvIZzeTsW/ay06eLG//AeEk5Jp2eUAUi6DsPlNB+lfJUQ0XrsU/wYHCuSpNm3+6Yk1hJMirJTMy/KnP4b/14EDqHWQ/iFEfWEwn59ph+LfBfDAPgcJv4tfhc82hEzM4qd/vjQYjGWe4/TPC1GoV7nUBsUX5YrEcE3HOYCjCCslE7P8AXQmGMq7DtS/1nKv9A07XL9MsNjePyMhwgVkYlaPALgH3lXEifoHzm2uDRyAvNORwk/wK2Rili8Azneq/iGs3uLGr0Mv6xzsAEqr8z3nk5lZk7BXo8wrv+dg/euoyJeHWTn8n+Sw6v/J3ABh2EQyNYveAOQrEryjkIP1T0N4vZULgLts3vvfF7cjvJRMzaL6V6A8nuzc7HQw/wYiHetdB0L4Pwwe7hOHCz+egJfyy8jcLBf+D4V38xOHR6Bd2IDrLegA5AeTu806Hc7HEWZKJme56PM6eDcfuUD/WiHSWWyt3GsEGwQvYEdyio7TX0BHAmZKi0MsdPoPAKPA6n+zC/RPxwZU5MsXWujuVcK719+7RPidCZipJJHpWab4h+Cz3e7RP2UfHEI3WSf898p3w0NVuOgFBOEFjCPTs0zx7zvwTj52kf4hzH6OJfYHQvh/JjiAFU7t/ut5YCiuOudDyfxyHv4PhvfxqL7a3T36h7wTYfe5D/+9+t3rr1wmfEwDfgl8BZlgzqPPC2y298+4gbUFyrW5Pv0HlHnlcTYf/NlfB1ALn/16hJ8S5YYgBMbZE4pLqv+nNAUh7L46f/jgXBb/zg545RdcKPwucNA8hJ+SKeaGKvP5QHgHd7pV/3TYPURAuQy/Li/3Kn9x7QvQMdrymWSKOdK/AuV0zIVd7ADKggVy7m6jAl7pe/AQURe/gEggn1MOkKsCoJdd5PDe/1Si0Mk5jACURW4WfuIFKPPJFHN1AOmLPzpdzm/kRPide4YNCoxW/hq8WelwMwdulv9QdQtWouWLiLPHgZulC4OjlF2kf0qVWD08+6Pq4iVfvjK6kP+p7RF+sG06P+JWjk7j+2vGy2+DUn5InD2uHCP9LvowP+Bm3dN5Lv9f8apnQtYdgPCzpWInrxOLebX4F97pWi7kHc33S0cpFM0uN9wp7VcLeczVuvc0rxfbeFD42K5sh//nCD9/D1gVm+EBngJH4N4XEY88LLVAKBYlw8wet07WDx7hWr2bzxvERjR+sEE//wR4WNYcgObz3Ai/MADcCQ/QIdbxSvEEb3Xry4jN5E1Vt8plZJjZ4cqxchWkns2uNf65PCLWgPEX8zbdBv28FiLyB7N1+g9U/Ww1/NJo8pejE2gTK1mVeBycgQtfCISikYa7pWqHT0OyDNfdIZWpc3iTK43/MYh6nmMhMP76f9ifH/6fj+2Er4OzUfz7PPyid0745V1OoE4shYdyqVcOT5Eag6PlZjJQk69dRyqx5gekVteG/4t5jdjJy0+xPz//M/A15hf/fOxm+EUHunmATlEEacEC5sqiYMcsXlV9q1xLRmouh8bJ1e0zIOV0o/E/AWnP690aP3IN2OZD5ob/RcMGwS+aDxzu4SE6xUZWCg/qxvCsvf5OqbF8pKtg0Vnn2tvlFleG/4/xmFgLh2tPdufnGvCazt3sTDNP/0vhl+zu5SE69cLED3kIHth19YDIFH4sONrxU2lzF/7frEQh/A+CrDXXOYAVDIt+0V5tz89/pfqZbNbpDw6Af6fH8P/TTqBZrNCdgKteFJxMVRCiRshYTav+t8Zm8mMuO/k1sQzCfuy58fN4H7ZXDzY6DqIA47dYa8XDhwg/K+zT+Lt4J68SSyBXe8xdxZq6SVLABaOpczKSvXq8HMFUy0X6pInFrEpsBU7V7vz8Ba2EnW1C+M8vBn4jjQfpFFsgCljAG93kAKIP872Bka6Yjpzt6r9ovl866LJmn1axUe+3UdOwu7+AnV5uQvMP+yr88Oq0HAA++AZWLh53j9eGNKAhOFpuI6M1PP/XOma7KvyPi3X8KNhQJE2bi2ol/HtmFABnpfkgXdwmVrH9bvLctROlv5PRGstVt8ghkK17CsvPsgNwkof7Z3NsnRkpwK/66QCwPyAslrIjbqneQhqwn7oCjeWWydIHbjn51cUsIHakffKf2JRX2rmbGdcVCD/0fIgAwv1+IOSt4AQW8lo9tHF+U5CoGCPXkeEalv+3x2a6pMv0SbCTTaw5ea/fX3uLx0vY9QY6ADY5hSuIvrhDbOTV8AEjLsAGxBCuSsZrDNdMkI+oc1wQ/s/jUbGeh8BW2jO0tTjC9Y3M/9/I8IG6QpOoWMdLxVzHFwW18BSpvnyk0kEGbED4/6BU5vj8/3EeE6vYcVHMWw2xNT9/r3PPsLONCP9l4EMGPRQ2CUXEC/yw01OB9kd5S2icHCQDzrj6H45Ok8IO15e4toQHRBFrMMzO/DyAsH0jwv/Z8MMaDXwwcAKsWVvMy5z8UrFfve4OqZSMOOPw/3jHLIf3ksyHnH+XfsUeN9DOogjbhyhgQCan/1kQ/v8ow4JEt6xuZ4gcdHJhRyBsNUBpQP95pCIa75XqRCFvc3DeHxZbDIywP83vIHw/k9P/BvghH5jycDhJ6BV+HATg2MkuCFtF+CoZc/+4YrTcGJnq4Oo/TvZZy0t1WzDHARwBGx6XSfFvhuHh/8nIwdU8JB53pofHNADhq2TM/ePq8XJdx2xe41h47/OsWhT1ifDLhNvxNgDSgPTHhnfuZmfDD1hvcF7SHWgoIpayZoc2CWmQBlTQwNB+hf8dDXdJmPurDp3s0yJ2sDrT7cvP3tR8ni+m7QBUP/t6cvJvp8kcFztZUDztzKGiCF9FGCsZddrhf0t0Gj/iSONfAGnvVnbMjNpaN4wtxd9BOH86p/9A+IuTgFuz8ICJouA2dlDMA6/owElBNRP0NIBag9Pp/f++3KoWOjD/nwsh/0Z2IFt2lYwCChHOn3ruX8LOTYb/nVnl9ewwCCjsvIGhfB9BhNMK/zUI/0sdmPerYpU+0689q3aFMH4fvzgd4M8V8Bf3Zt0B7ALjX8HKdUE5qRg4mx9HOCsZd+rY/7bpfJ/jHMAyViWKeFPW7crPqzUfuzJ17H8JH6X37mf/QeNiB68RS3mVw15+B8JZybhT4+BoOSIKHRYJLuKVYiuvylLe300UwGalUwDclZOH7HICWzgWBWuc1CmIcFYy7hT3/t0lfeQwhF+9eA0cQK6MP5EG/LqzKIWuwM7d7Cz45pocOoCu8eKVYp5zkIOxmbwOYa1k4H13/7U9wo86aJZ/VLykz/TryLFNxbXi4X1fB8b9nu+ZfzeZEsfEGlYjHnNGFIBwVoS1kpH3Ofk31DHbMTWguFjJsNOvyQL2hLcBM1Jp//2hNR5WD1taxLM6aMgRdYCWBwkc1Bc33u2gtd+LWLnYhYs7rWJP7I2+Fn+eB9/4N8s8MPJ2XgeCdMKVULxtutRSMUppJEPvMfyPRaZKLY6o/cwHw99iYht9//gwwvt7W/s9Dr4hZLGH1sRrkEM9af+mEAhtG2snysfJ2Hto/rlVLsVV6w5o9mkTr/AqiGBVi9lSI8L7ezr9B6t+9qqee1vroRP1gPUgUCyo2Fs5Yk33SU3l1BTULdffKQXVOTbvBsXJPi/yiv5P9DX5ME3A+8/qpvg3fBj8wW8t+NBd9YAmsYoHQMC2Hg2F8FaEuZLBn7r3r+VBqcnWoDBsYFuOk30gWrWqHenwfnZDd8W/O+APyyz84DhevEEs4UE754gIb0WYKxn9SWu/vy9Xtz9q67XfcbEY0udtFir6dc8NCPM/Ofw/AxzAijRXEOWoKMjqxDzWYGNFURHmSgNDT1n7jd1/9kWEzmUR8To7ntNmn5QnBvNtwBedWPzzgAP4L8sbf/IDqJtYGaQCtl06ijBXhLuS4Sdbf0cp4daHJPvOiMQFuOsZYmeETWzob2Dv13Wt/R4A+XWB5cP/T9cDYmKdjhy05SQhhLki3JWMP9n8c4sc7pjFy21q/B1iJT8sii1ZPO+JEeY/CWH/eVqxB8P/BTZ6+K56QKtYri8etWXTSOPd0nG6DUis/Ybwv86mc/81sYTXi+2mjvUyi9cj7B+hv5cAv2XDD6CJbbxOLOYNdqwct8/gBwM3kwMIjFTUyFS+15an/1NwCG3Wx3ppNrSfvQj7x7XfV8N/NNvwA3TqOddmXirm27A/oJC3VYyVG+j6T9HUOTxgyzVeG/X13TGb2k5MK+GjcfZ/oU0/wD+cgLqR7bNjfwDCXl0/+fdWucx2ERze97/ID1qw0y+9MXx+vhGx//9mcweQ4NXwQmw2SajtEY7oQFdPCgpP5R/bLu9fxo8JH4va3WZUH/soD/7xZ0c4gCLWKpaykH4lY5+mIFE5Vq5y7fXfzUq4Y6bN1n4t5jVip47v73QANzrHAWAhZis4gEX2WSSBsFeEv7q4+eegrdZ+P8nrxCYetNF9f1/chCnAmw75MIl1YxtYuZhvm1MljvBXhMG60QG0TpaCtln88QRvEWt5pYlrvHKRAnyMtwArHOMAEk5AiBd5lV2ahBD+ijBY1zX/jJZr2x6xSesvppXPsyZ9lZ2TbAUOf3QA12RzAUiWuFksZ9V2aC2FNCAMaUCl2xaH1E2SynB3oi1APtjs4+N1DrMRiGTYRGwEuhj+40cO+3C4eLRKLOLVdjhhWh+SWoKjFPe0Bo9U1Ob7pWZbdP89xWrEDhu1yafO7wJfjlOAB8G/jEuOC3LWh8Tx4gusXxREGGzo++65DagYI9dFp/FaG+T9TWIjK3Wg8VcDPwg8JLkHgA+FcOAx+B9VjqsHvMwq9Bdp7a7A1tqJctgtDqBmglzfMdviDgDXd7/IypyX9+vp/ktaMbvo5IEgCAqa6zgnUAwfeDULWhw0FG+dLJUhLNYFvf+xxnukekt3/+Eo+uchetzFGywyIt+w2hgc9q9oxZ4LelwSAt8wEb5xvwUWGRi5c7BGLOMVVm4SQjgswmJdEP63tFt58cdjOsKvUuzUw+ROx/TI+PkROOBnguGf0fdykBL2dfgL/5qYIuoQIWzjIbFQDzutejPQgbBYh98GxKvGy81qIW+2rANYADq/iTnJ+KNg+L8A9qa8GzAxJIR9EXLoRcnioDPCoNfAAVi4PwBhsQiPdfLW36b7pMOWDv03sIAtRuOlxiGI6NeIEiZ17hk2MC9dAidwjuZn4+CH/MkhAhHaS+y4ddeHsRonrxHH+QexmeyIZR3AKnYIdMQhRT92DPgesN3z8zIhvCaEH3Kh6mc++MHtDigKhtUV8KIfs2QRKl57h3OxAZXjZOzLENZs9mGH9SlT9jf+GETuv9R8w7+k+j2D84wiXCYAHuVR4L/bvkC4g7eIJTxgxaIgwmOd6gCa7pU+sKTxL+Q1Yqs+2cfOqS6mLUcgYl+s+Tzn5plBnUXDBqk+htuDf5IoLtg3FRCbWZV4Wl83FrfYbUAjwmSd2P3XPsOCk3/m87DYyKtsfqhh2vJL4NsgYj8rz2yClIDBL1ti81uCNrGBl4l51ioKIjwWYbKOW/wxTi633NrvuZDSvsRLLbrGKx3jXwsp+pV4QOdli8DTDBU+9gD88gM27hSMijXsgMXqASrCZB0Y/u8XVlr7je/8BX4Ea0I2Nv5SUeKZA18vyMsFacWeweAE/o/w6wsHIzYtCnaoS9hRK6UCCJNFuKxzqv9yNDJNarOQjOM6yGcXa7Ivko//GiLxb2slw4fk5ZogGrgAHuZpeKhD9iwKslZQiGYLpQFNdZOkUgf1/h/rmGUhPMaTrEHdrt/329H48blXqn7PJXlWI8hDxsDD/cGGjRRCbOIh8aRlVlN3tDwgNQacMSlIa7xHqoHw3xqj25/greIVdsyGk31UfaWXj98Huf6QPKsSpANfB34NHrbeZvWANrGOlekKYo00oLryFrnG9r3/o+XGyFTJGstcH4d3vAoc/S7bNfu0gE2VaD7P9/KsTok2Ys9FkBJgceK4vUBDkAq8wC2BHIQ0oLbmNrne7g6g6lY5FJvJKyyzxmun7ZbgBCCyXqT52RX6Lj+7EDiA07USfdzYb2x0xxoXRSwkFrM6CxSsMHRusHkaEK+7Q4riFiQLrPEKix0saKNmHwGn/t/g60jI98/sEb5rg4gAOwjXwAeptM0OtV38qBXqAQibRfisbef+j1ZaIlP5MQus8WpVX2d2uq6uU32sqHPPsIvynEDCx84EJ3A/8B9ts0vtNXACT+TWCSBsFuGzdoUIh26RIx2zwfHnNu9vF2v1HX52KfTthej5ceCz85xE4M1OEyXsOvhgO+FDhm3QH6CKNaxSLxzlUIGb7pWOBOy4RnykotVNkkI5nfuPq+KeZxUQ0UVs0tH3Uzgk9ZA/z6mk+tnncTIJcKv16wEQATyn1wNyuDeAHbHjGnF4ZjU6Lcdrv3/AK8R2XmP9vJ+FBe7n8PEvQ8o8MM/pBB5uiPB5vgd5zocW7xmIgwJV6vvgclcUFAijtV3+P0pRRSFrymHRr0afCm3tupOAiPiQVsLu1nyeoXluI/jQl4H32wiCqLW0l97MSsUCnrO77JYH+Ad2cwANd0sf5bDoFxUv6zpl3YPFz7EN2Q8H4ZWuOPV7aSM+FwQBKQH/q4WdQEys5+W56g9of5TXlNtsVFjbdH4gZ2O9Vuvbe2MWNv5DcPDhuL1L8oj0q8LTQCDfBYH8zMIvLiJW8NIcrRFXQ+PkgG26/0YpTR2zcnSD8iw4ap8+ztuqp//vIfUd27ln2Jlk+ae2EXuAX7BsG3ERPNcSnv2ZgoW8A+G0ttn7d4e0Xy3Mwdqvp3lAbLfsDj8sem8AvoosveerwgGixHOW6md3gqD2WbCAExdb4HR5ildlfY34NCkauFlus0P3X3iKVJX12X/zwfBf00N/q+mMprfE+/gszec5D1LeAWTpqd0UDINoYHcCCGGxFs0NrBYUriWbNwMIp0VYrQ2afyrbZ/BwlhF+UbFOh/dGLZc2+tlPhY9dTRbdv9rAGZAvLQNBHrTYiw2Ll1i5PlIqe2lAFGG1CK+1sgOov1MKqHOymP8/DqnGCsj7d1ku7y9X/fxFOPGp0JfhVeHpmp9NwAkolioQosItZ6XZHCeGsFqE11q4+aet9UGpMYvhf1ws4RVip6WMXwC/DzwZUlkq9Bl0VTgYnMBXkz0D1kkJdvIWLYv1AEgDQtXjrdsUFBonV0P4H8pe6M8iYhuzUtEvCuG+H/QUUbCnk+UaPWfAz84BAU+Gr1WW6RnYwivFXFDELHUF1t8lhcstig2ovV1uUAuz1DAFkZf6GqRh1tADfIYwhPxPQsp6nm2hu7ZJC3YPv1JNzEG3Ap5AFRsgFchSPQDhtQiztWL433S/VJsthJ/6EjsgfJZICbHw+F68hN1AlpldUBG2Ea8E4Zfl/BTA0dKreWk2Fo8ivBZC7Yjl1n6NlVvaH81CjwR2Yy5nZRZY4xXXZ1z4+CatmMl06ufmqvBccAJ3wYv475w7gR28SSxl1VlYN6YizBbhtla6+6+eIDeJQtOv/zSxmNWKrTrCT8ux8e/VV+X52MVkibmtDQwCL/wVHJqY84aPraxKPMUaze4PQJgtwm0ttPZbbXkgC73/83lEbIZIK/cj5t6GFPS6zt1U5bdOXcDPPgsv5onk3PR4zq6ANrP9+t20qT0BrCk4yjqFwCA4o47ZrNTk0F8V69gnOYSPx5M3UD+E9PMLZHHWjAYGC7/Hm1yUmLspMKioJiMHEW5rmcm/4+WA2ZN91BUsl2O9MOJ4X/Wx8ahjZGkWJ3hZ2Eb8Us5ARbsgEniOV5lZD2ibzg9bxQGEH+Ifm+oAlkBqVcTCOQTx7ISQ/1qyLDtFA3uGnQ0vbRa8vA9yM0mINYtnWL2JtwHRirEWWBwyUonFZvJG04x/ITjx13l1jop+eMO0GFffkUXZ8paAnwZ8E0QDP89B7qiKzTwonjKnMUYt5LH6O6W9Flj8cVSdY9Lgz/ngWDawQA7WeIGusN/A752gFbtwVJfDrgoHaj7PpfAyl+O89SyvG1PFel4qnjDlekyEp0ihXI8Mb75fOiDMwP7jNObVPCCKs47ww0LfDq2EycLHKN931E2BzzMaXi5WktuzqFDtYg0/bsbNAMJuQ2PlytwN/pRbotNNKHbiWK/nGIb9zSK7uP2Dqp/dT5biZCdQgqAi7stqNOCD37WEBU3YH9iC8Nuc9f7fJh/rmG3C2u9FvEbs0if6ZnP55lsQLX6DLMT5V4UDEtOI+Xzgv2etuLQNFPppw5FyAuG32Iefg+KfaLpPqofwv93gvL8+Oc47a7h9CPWXi2LPMGrndddV4VCtxDNS9fN3s9I45ANHs5FX6QpubBpQFcrB3oCKMXJd5GHJ2KUpc3lYrGNVICuRpcaeDzU/mwgHwmfIItx5VTgIHMDngDdl5ZYAq9kvskZD6wGFvLluor4/MKsOoGaCXA3hf5Whwz1WsBodWJWdKv+bYPgenDVBlkA3BUNAIR4EPmD61CEfbxYreK2RTUKQBlQGRymRLPb+dzTeI7UYWPQTYhnHHX41WTD8I8BzIew/izSf6MTawCBQim+Bkvyr6ctLd/KQWMIqjAINxWbx45W3ZG+NeMUYpSU6zbC133GxkNfpQCrzcfu/ECVsNER+Q0jjiXq6KvyS5udLQVkqTFXIrSwgnuR1BqUBYYTjZqsnIDROjqpz9H2JRuT9beJVXmn6EFc/W6362VdIw4n6jgZ2s6EisZvgQ1PD0VfYUQh/DamiIxw3kI31YSMV0XCXVGbU4E/tJXbc5L6MUojspkCaR4U+ojQigeLhg0F5vgaOwJ/c3W5GPSAq1vAjRqQCCMfFjbzZWPvd9gjfZ0Tory5nB0ws+gl4d2+D8d8gioefRhpN1N+bgrMhdJyX3E1g/HVhEW8Wz/HjCHnN1KgQlpuF67+IKGTRjCf7LOEBscOUCc/xJIhnGYF4iAy8KeAjkrsJjI8GtvImsYg1ZBoJICzXbAfQeK/0YcZFv6dYk9ikj/MWxlf5+f/AyX9HZxEV+ogMdwJMAgVbD1xleLi6EQxifmZ99bGZvAFC9LCZDqD9EV6W8Rqvl1mZCY60GQy/CEL+60lTicy6KhygFbMLQcmmg7LtNbiNuF2sZ0cy6Q9Q5/COmgnSQROr/4GO2RkULfGzrWSHTcj7y1Rs7S7xXIoLZklTicy+Kjw9XsKuA6X7D0MHVPrAuJ5nn2SQCqgtD/JSsxxAw93Sx5ms/dYW8yAYf8xYBB/7X4jMbqI1XES5iAhwlfkz+nx4o6KBItasPcODeqGsPxODp/MYwnTNmPwbmar3/vdvF+ICyPt3MiNn+deqPrYd3wFpIlHOCBQR24jvAH7XoPXUmnid14in+jdmC+G5CNM1fPLPODkYe5S39hPh1yI26Wu8hEGFvo80P3sUIrEzSAOJch8J7NGnEV8NKcFmUM4mQ1KBV3i5bjjpdwW2I0zX6P2BDXdJlWp/Fn/gNKS1CLk1pOiHtYMfg/GP6NzNqMpPZLVbAn4JRAKzkilBpuvGcCRWUB+Nle7+wIeluooxcr2Bc//DrZP1td9a2mu8nofPYMgaL0gh/OwHwIjbH0jaRmRRJ+A5XfOx78CJ95eM6wK7IGfGdWNpGh7CdBGua+Dgz1BsZtrDTOJiEasTRSyUYQNVHBzrMa3EM074GA3oJLLNTcGlcFqtzbRAqPrAgJ5KP/dGuC7Cdg1wAFr9JLkZfmYk7bx/BzuUYUdfI/A2cAC0iYfIhrWB3excUOCHE91pGUQDr7OjYFBNaS4OOVoxRmnOfPCnEg4/JAXTRPhFxAZ+JMMBnfvAgc6DiIraeYls7ASKhp2m+tk3QaH39HvYCI7IWssq9JFZqe8NaKr6vhzLeO33LXJrbFYa3X+IaVipT/bJoOKPIB5egLIjDSJyBIFSXwH8HCh4qJ/rxtrEC7w6HdBQw11SIMPbgHjNbTJiFFLv/lvG6sXOfhf9cJXbes1HuH0ip0UCe4YNECXDh0I+exveY/ejMBYHw6oVS1IfKoqw3UzWiGPzT+vkNKC/i8BBbdMHqWj9yPdxVNd0ze85H1Inauclci5BXjsMi1vJIld6p+R2XioWgiNIpV24kEUrxsjRfuf/o5V2dQ4LpVTxX8AbxGYd5JPuqR8Bw38DvsqkGURuqg2cAXnuguScgfTy5VdTXzfWeG//14jX3CYdS/G+v12s48f7UeM4DhHRaoiOziONIHIdaT7PEAh5x4sEqCiShuHExIusXDzWNzAH4bv9dQCRqfyTlBzAChy7ldYaL3R474Lx3wNMHX1ELo4EdjMcPcbAEFYmi2CpFgWbxHPsaApNQe2V4+Rg2vn/KKU5NiuF/oPFYPxFaa1ZawVnsV34PdfgOHbSACIivS7AzgHjuAvy4aoUC4RxsY3XioUs0Ac2AGf470vXAdRNlD7pE/q7gFeJzZD7p17QDGs+VggO4Hxaw0VE1F1aUDz8MtXHfpZcU923UW2C0HuB3iTUU1EwHn2Yh9PsCoyHp+itv6IXkE+beBn781OqX0QgwvltvIRdQ2+YiKjPaIB/Fozm2cTVWJ8Gpop1rA4MMtbLqLCWqlvllGsBFaPlhrZHegEhzYXftUZvcQ6ncL0XTNztezx06hMRpV4bOEtL9Az8rk8ngAW4VbxMPNY9aAhhvA13SRUpr/2eqK/9bu6h008Ty1mp2AXpR9/tvB9CSjMFvp5Pb5SIKF0noK8rw90E+vLS9j6Lgj/gx3saw41w3mAqA0NHKmrz/RIaf7cdhxquON/BqlMI+38Mkcw3aA0XEVGmdQE/u0iUsCf6bCPexmq1J7uH7bbP5CGE9fbZ+z9WrolO59Xd3/ezqNjSZ6dfFE79F8D4P09vjojI0NoAuxYM7D97GT0m1E2sTMxj3U0SitRP0mcFar0V/2pvl2vVOd3sLMS8fwM/3MsadWwC+oPwsVEYudDbIiIygcDIEFS0psepQz4eET+EVGAuj566OEQKIry3l7VfOE6sodtOv1W8tJdx3tgHsFPzea6kN0REZH5tYIjqY1PB6D7oYd1Yi1gOqcBJnYIds3lFaJwc7iX8b26fcdLab5zlv4TViO09Xkt+AuH+XFrDRUSU1XSAYwfhjcD/t9uUYBsY7EI9FTixP6CjbqI+Kqy7NCBePV4Oi8KTJv8sgJ/9ut6cpHUznfdt4FFa8XCayU9ElPVIYDcbqI8e8/HnwRAbTpmlt40FIRX4VDNPeIq0t7umIIT+Nt4rHT4p9FfFa+xAN3k/ruF6RSvxDId/p3yfiCjntQEf+y4Y5fsnI/LU19hecAJt/1wfxkII8+1u7XdsJj9wQujfIV5i+7o59Q/gTAOSOBGRxShewiQwzp1gpNUnFAVVsZod1gt5SeOuuU063s3ev8Z/TP7BvH8ZD4pd7MSiH7b9vqn62dUkaSIiy9YG2AVgqHOB9yfzdpwk1CSe5ZVdi0cR5nuyA2i+/4S138+werFdRybGk/v3joIjWaYVs8upnZeIyOrpgJ8PBaMdAWnB28k2YiG2ggNYxPUrvo5ZvBXhvp9a+z0D/jxR9GsQm/T+fTXpQN7V/Ox2zeehoR1ERHYh3J6j+tglkBK8mjzJVbGBHxXzeAvCfOtulz45YfHHUXUOj+lThtbpwz30oh9EE8XC5+GduxlN5yUisqUj2M0GayUcpw59jHgCdS0rxXVj4Sm8smtiMIT/ByA9iIoVrBKihlY95PezGYKm9RAROSIaGCT8Hmwj9gncNPQcq4WQP1I5Vq7CzsDoNN4qlrCA6uM41PNn8L3ezj00k5+IyFm1AR+7HIx7nlrEPuhYyA/V3SEdr54gH43NY4fENr2rcDWkDIwkRUTk1Ghgz7Az4KQfo77Kftw0jR9ufEA6qK5j74hido/qp0IfEZHjSfWzgdpWJoXns2ciT/GXxRZ+nVY8nEJ+F9L/B7FFN3ttGQAEAAAAJXRFWHRkYXRlOmNyZWF0ZQAyMDIxLTA1LTI4VDExOjE2OjA3KzAwOjAwy78p+gAAACV0RVh0ZGF0ZTptb2RpZnkAMjAyMS0wNS0yOFQxMToxNjowNyswMDowMLrikUYAAAAASUVORK5CYII=;" vertex="1" parent="1">
          <mxGeometry x="400" y="408.47" width="25" height="23.05" as="geometry" />
        </mxCell>
        <mxCell id="zkTMenMnNY8oFGBPqEzL-10" style="edgeStyle=orthogonalEdgeStyle;rounded=0;orthogonalLoop=1;jettySize=auto;html=1;exitX=1;exitY=0.5;exitDx=0;exitDy=0;" edge="1" parent="1" source="zkTMenMnNY8oFGBPqEzL-13" target="zkTMenMnNY8oFGBPqEzL-1">
          <mxGeometry relative="1" as="geometry" />
        </mxCell>
        <mxCell id="zkTMenMnNY8oFGBPqEzL-11" style="edgeStyle=orthogonalEdgeStyle;rounded=0;orthogonalLoop=1;jettySize=auto;html=1;entryX=0;entryY=0.5;entryDx=0;entryDy=0;" edge="1" parent="1" source="zkTMenMnNY8oFGBPqEzL-13" target="zkTMenMnNY8oFGBPqEzL-3">
          <mxGeometry relative="1" as="geometry">
            <Array as="points">
              <mxPoint x="360" y="420" />
              <mxPoint x="360" y="500" />
            </Array>
          </mxGeometry>
        </mxCell>
        <mxCell id="zkTMenMnNY8oFGBPqEzL-12" style="edgeStyle=orthogonalEdgeStyle;rounded=0;orthogonalLoop=1;jettySize=auto;html=1;" edge="1" parent="1" source="zkTMenMnNY8oFGBPqEzL-13" target="zkTMenMnNY8oFGBPqEzL-8">
          <mxGeometry relative="1" as="geometry" />
        </mxCell>
        <mxCell id="zkTMenMnNY8oFGBPqEzL-13" value="Infrastructure&lt;br&gt;as a Code" style="rounded=0;whiteSpace=wrap;html=1;spacingLeft=20;" vertex="1" parent="1">
          <mxGeometry x="190" y="390" width="160" height="60" as="geometry" />
        </mxCell>
        <mxCell id="zkTMenMnNY8oFGBPqEzL-14" value="" style="shape=image;verticalLabelPosition=bottom;labelBackgroundColor=default;verticalAlign=top;aspect=fixed;imageAspect=0;image=data:image/png,iVBORw0KGgoAAAANSUhEUgAAAOEAAAEACAYAAABF3BHpAAAABGdBTUEAALGPC/xhBQAAACBjSFJNAAB6JgAAgIQAAPoAAACA6AAAdTAAAOpgAAA6mAAAF3CculE8AAAAB3RJTUUH5godDyci4PNxYAAAAAZiS0dEAAAAAAAA+UO7fwAAF1tJREFUeNrtnQl0HNWZhbXa8oa3eMOADd66ZWKEvKirXkFC2CE444AhhMyhX4kBQiYDZwYmxMOWDMMyDMMWIGEIdmBId4uAw+6AkxyWYTGYsBqTBDDUq255Q9jGi2wjz32taiMTZNRSd1Uv955zjziJu9Wqft/5/1tvqYqo5RwphRqAn1UVFEX5L2k5TwHC5/HzONtyhkQjKcJIUT5D+IxtqV3wZkB4jzTdmbZwh0Qb2ip5dSjKXwgzTtmWe4k0ktNRIQfxClGU/xBq78T//oq0lA1PQF6s45WiKH8hzPgjQJiA59mmOw55sYZXjKL8hTDjVbZQ/4329AjbTI1EXuTNG4ryGULt7fByW7j/ZhvJxmYjOYBXj6L8hTDjTaiKj+BnMyrjQVFTsUWlKJ8hzDgJ/wpAniqbWodzSoOi/Icw45WoiNfZlnsMzKpIUQFAqN0OLwOMl0YtZxKvKkX5D+FnedFSi6Wlvh+NpIbx6lKU/xBqd8AOfDfy4jeRFTnRT1E+Q5jxDvh1vP+NaFMP4ZWmKP8hzFTFjfDTAPEi5MUDeMUpyl8Id69FhVfDj9uW813kxX145SnKXwi7rrpR8D22SJrIi/34DVCE0F8IM95qC7UCLeqVetUNvwWKEPoPofan8CfS0rv6VTPy4gh+GxQhDA7GLXo9qjTdryEv9ue3QhHCYNyBz7IBP++wLXd/23Srm40kvyCKEAZh5MQUIDzfFu4o7tKgCGGQMFrqZQA5F63qMG4kpghhkBbqTmkkD41aDtejUoQwwLzYCl+OyhgCjAP5zVGEMBjvBISvok2V8JRoJFXLb5AihMFYzy8+ZAv3W7ZIjkNerOY3SRHCYKy3TF2P6qifpzGc3yZFCIPxDlTFVwHhj+FZyIs8NZwihAF5I2B8wracH9hCTWVepAhhcE4Bxnvg+baRGsP5RYoQBmO9ZepNKdyb0KIeBXNKgyKEAXkz/AKq4iVRPb9oKt5FpQhhQF6b3tUv1Hly1tqhaFH5xVOEMCB/iL/317blfpvfPEUIA5zS8E4Nv7XZSB7KEUARwgBX3aRPDbfUgmgkNZIjgSKEwe3qXwcvRV48DVmRj3ujCGGALarCtYhHLcfiqKAIYUDbpeBt8PvIiz/hszQoQhgsjL9FReRRjBQhDNAP8RFvFCEkhBQhJITdXTP8f7UwHw9O9UkNExdXRUKxakLYOwi/Li01NSrUwKipCCOVtaz6xDBjWssMIxSbQgh7ASGu2a2A8EUp1Dm2UJPlzHU8G5XqkYxwYrAIx6cCwmut+vgaKxQ7jhD2EkJvxY0+jnGpNN3j9anhHGJUd0LbWWuF45MA4Lnw6wBwJ7wLEB5PCPsKYfqQYmcTILwLlVE0G0kugaO65r5qMxQfD/BOAoQPArxP0vBlTAhzA+Hus1GFWmUL9zK0qrOjkVQdh2CZ575wfKQIJ44EgDcDuOQe8BHCvECYcTsgfAZt6lm23kjc0Ma8WG7whWKDRH28EZBdAr8B7/hCAAlh3iDMuA0QxlAdv4P3Yl4sk9yHqjcFFfBcALYE3tgtfITQFwjTuzSkXotqqZv12ah8lkbJ5r4qI9QyBlDNh++FU18KHyH0DcKMt8AvwpejOs7kg1BLRyKUGIjcdzSA+hm8osfwEULfIcz4Izt9Nqr7A9tMTeTx/UWd+2rgQ9B6LgBML8DbswaQEAYCYZezblSLzos8vr/ocl+FEY6NFfXp3PcEvLZX8BHCwCHMbCR+GzDehN91GMwpjWKogPWJeYAnAX/QJ/gIYUFAmPEGeDmy4mXSSE5CXuSJ4QUoI5xo8Ob7VvS69SSEBQthxmvwvn9AXjxbzlo3nGejFobM6S37dcl9n+QMPkJYkBCmH4IKu8iJjzQbycOIQKDTDgOQ+84EKH/0ct+nOQeQEBYkhF2fpfEe8uItUVPxmA2/c184LgDIr2G119UuhLCkIez6LI2VyIsXoj3lcxfzP+0wAbnvPwHHu/A2uCOvABLCooAwc/DURvzOZ5EX5xOVvEw7DAF85wCK1+AtvsBHCIsKwq4HFX+MvHgvPts0opOT3NfPDLXo1vMhuN1X+AhhUULY1auRF6+URnJf23RreCc1q5azElWvVoQT05D9fuFVvl2BmRAWLYQZvwYIz4xGUqPxebll6ktWupiAD+BNgC8SuZpsJ4RlD6H2NnyeR+Fj0KoOw+fmetQ9W86K2ZN/Uw3oxqACngwAlxUEfISwpCDMuBUt6n/hs80CjENQHXkKXEV6l8MIY1rL4VZ94u68TLYTQkL4BX7TFuoCW7ghGVldV6550ZzeMhBVL4zsdzUqYGvBwUcISxrCjB+Twj0DVXEiXFVG7aduPaeI+oQNCF8qWPgIYVlAqE+B05uJ70Kbqnf1jyr5O5/1iQNQ+U4ChA94Uw67CCEhLBAY1TvwVWhT5yArDiw1+IxwYiRaziMwqG/3jpboKAoACWH5QNhl5c1TaE1/aFvu9BKZduiPlnM2Kt9lgPDNnG4xIoSEMI8gfgzfBxhPazaS44s195mhBHJfeqnZk/CmooOPEJYthJ8tgUsfVKx+hjb1+KipiuYUOFS+sah6pwPA/83qVDNCSAgL1Prx4K/YOi+abiTa0FZbwMvN9INUjgKEt2HwvrP7WQ6EkBCWiPURG0vxd51faI8J9w7UnQ74LsegfRHeWhLwEUJC2M0uDYX29Dc6L+LvHx5w7quKTLtvrFWf0LlvaZ9PNSOEhLCIrHf16ymNO6VwDw/ioGIRSvQX4cTfYZAuht8vSfgIISHs4a7+12yhrrSN5FQ/DirW24zgWWg9b8IAXZn3oyUKBkLhPE7oCOFevB5/73NoUc+C98lj9hsj6uMXe08x2lDy8O0BoZGcZVvOr+DNhI8Q7iUvpgChvi5Hw7U5zH6DkPvO8E41W1c28O0B4cx11QBwDPr/b+Ei/54AEsK9uB1OYrz8MmokD0Je7Otys9kiHL/Pm+/bUXYAZiDU0hcTF7UWYXx/fZsaXkEICeFevFUfsWFb7vnIikN6sc3oAOS+a72bLu1lCd/nIcwIA68S7ocwPhW+ze5chU8ICWG3j3xD9/QCPLeHrecAMxw/2ztKvr2oFlr7BWFGtql0m9rfNl2BC/2gd9u6gxASwm7Wo36CLupudFTjuq1+odgcDLpHSm6yPV8Q7lEdI6nB0lTfw4V+yWtDOgghIfwCv4tr1tj9ms/YeRh0SYLXCwi7tKr7o0W9Wh/P7q057CCEhI8Q+gjh7lZVKANZ8V5cdMdrUwkhTQj9hDBdFRva6qTpnowLvwRe680jEUJCSAj9grBLXhyBAfmv+AJegDeVUItKCAlhcUCYUbORPARt6s34It4qkRaVEBLC4oJwd160nLnwPfhCPiCEhJAQBgBhukVtXD9YCnUuvpQnvbxICAkhIfQTQm86oxr+KgbrAnw5z3nbYgghISSEfkHYZeVNHfwN5MUb8CW9UUR5kRASwtKA0JvOqJJGchSyop7SWNS5Cp8QEkLaNwi7TGfUSFNNxgDWefFx73AhQkgICaHfwhc1UArViBb1R/jilsM7CCEhJIQBCFlxGHwEYLxJn/JFCAkhIQxA+vAgabjjpXDnSkst9lbdEEJCSAh9hzGSqsXA1nnxTFTGQmhRCSEhLC8Iu+ZFQDgNvtS2HDfAtaiEkBCWJ4RdtksNtY1kgxRKb5naSQgJISEMJi9WAcIR8LEY9MsIISEkhEHBaKpqDWOz6Z6HCpkkhISQEAagZiNZYc9ZXSMjqanIivoUuA15zouEkBASwr3cSe0nTVegOupT4LbkaVc/ISSEhLAHd1KH6SkN+P+8XRodhJAQEsJgVt5MsIWjT4H7q1cZCSEhJIQB3EmttYVqwkBY6J0C104ICSEhDCYvDpHCORUD4hF4TR/yIiEkhISwj3lxP1TGH3u7+jf2Ii8SQkJICHO08ma2bTk3YoC8mmWLSggJISHMYV6sk6Y6wcuLH/SwKhJCQkgI85AX9ZTG2Xbn/OIGQkgICWFwq29CXl58YS8tKiEkhIQwr1nRcqrgowDjNRg8bxNCQkgIg8mKlXLO6qFSqPkYQHrLlEsICSEhDGY6owaeArCaURmXeEdsEEJCSAgDWP42wDbdWQDxYgyoS6NCHUAICSEh9L9FrQKII5AXD4iaqo4QEkJCWKAihISQEBJCQkgICSEhJISEkBASQkJYxhDOWT1OmupKb4cGASSEWVuEYykzHP9HEY4PJFG9neg3Va00knp+8bE8nXNDCEvR4fgnVn3sDni8EU7UwAQqRxP+li3USm8tagchJISf86fwNlS/hyPTEoc0TFxcTWryMdkvVD/4n23LWYUBuY0QEkK4A96Cv/15OIr8N4yk+NGmNrVOlELdiUHZmoOzbghhEcOHvLcS1e+nZig2gXT4DaOp6qRwjkJefNCDcSchLBsI2+FVyH7/Y4bjEbSe/UhEgGo2kiNs0z0LberTGKTrS/wGTrlDuBNeDT8m6uOnRUKxISSgkPKi5UyG9ZTGKwX0IFRCmLvWcwP8NOC7ELlvP454f6CagFZzLAZdj+9yRSOpAdJ0v47Begf8Z3grISyJ1vN1ZL8bkPtmkAx/IbxIWuoatJlHytlrBkYb2rKZzhgFgL+DQZuAVQnlxXKCUE85fAjfjdx3InJfHanwe8XMZ8vWlsv0tIQ7O2uQTTUJvgDv8bsSWXlTLhDq1vMB/D3nRjjlUBAQ7vLayicAY7TZSE7MckqjX+fZqOoq+E/wdkJY0K3nMyIcuwS570BSUFgQZrwWQC1Em3pK1FQjs4IxkhoshXMi3uM2eFWRrropZQhXIvddBx8OV5KAwoVwl5fv9PK1GwCkpStdVjBazji87nS8/v4cPmGKEPbe+vMuQvU7dc6UlqHIfgSwCCDMWAP0FP7dAgzM6VnnRaEOhi+AnyWEgXiTqI8/bIXjzfh5oDm9hWs9ixDCXV5LuRbt6aPIi2djgI7Jqio2rtPH9wuAeAXe5z1C6Iu3wy9Z9bELzXB8hhFO8K5nkUOY8Q7vGRj3Asa5yH893j+Gf1sZNd3h+H0neHnxY0KYN7+PvHc9Ws8jAOFQjvLSgnBXl7uo+rTv62wzOQN5sSaLrFgtOx/39l3bcn5foLs0ihXCdfhscXieGY6Ni4RiNRzhpQthxm1oUZehKl4Ij8sqK1pOHUCcjtf9E97nTULYJ29F1dNTDhKfbaIVirH1LCMId3kLudcCJj2/OB+Dt8eLfdPbpYzkELxuDmC+Hu+TJIRZ2xH18QXGtES9GYoN4oguTwgz1pPzq1Hd7pKmeygyYM9bVFPpFnW4bbpH4vX3F8DBU8UAob7rucgMx2ejAu7TMHFxFUczIdydF/Ge79uW+1M5Z804Xe16+lmajWSN3dQ6FiA2o11d7t0IIoR7egfgewaf4Tj8HIrcR/gIYbdTGtvQZr4NS7jHIGpoAWEtqukE2TmlkSKEuw9WWouWUwK+Qch9nO8jhD3PjMh7T6DlbARcNT3dpYF2tgIQVgGGBnzGRfomkI9L4AoJQr3LoR1t5y0zD7p/JCDkShdC2GtvA4S3yqbW/dGq9s/2c9qmOh4t6is+fdZCgFDDtwm/60mAdzDbTkKYw6qoT3BzL0KVG40MmBWMqKKDAeL3vQUDW0oUQr27faMIx/6ElvNkTjcQwny5Xeq1pKZ7ClrV0Wg9s8o3+PfjpXB+jvf5ME+T/UFBuBm5720Rjl8Kj+boJIR+WE/2L5TCFfpZivqZij0GsXPlzdfQ4j7gzS9+WsQQbtOnmon6+EJjWryxYeJirnQhhP7fjQRMl6M6NmYz2Z/OikINgc9Bm/p0eh9kcUGoTzVz4cUAcJ45vWUfjkhCGKS347M8j8p4LmCcDAh6nBd1BZVNqQPxusv1MR05OAUu3xDqmy7r4afMcPx8I5zYlyOREBbSo9E+AohxVLb5gGrfbPIi/m0/vMbA33Q73uetPpwank8IN8MvI/tdg9w3C61nLUchISzU5xPqozFuti33KBlpHZbNyhsANBQwzsPrW2C3F3kxHxDq/X1/hu8U4dixkVBsMEcfVegQZqx3aVyRXuQtVFZVA9V0Eqx3aSzxJvuDgFBPObSh8rXgdWdYoRhbT6roINzlTUMsQZv6D4BjEpzNMrgaaboz8Xq9BG5ZD+cXcwXhDnipCMUvNkOxEEcbVcwQZqzSBw3rLVORVFbnZEZNtQ/+1qPxWn1w1btfclBxLiBcAV9l1cea+CAVqpQgzHgFPvdNyItHoNJltaKk2UiOs01XnwKnb/6s72Y9al8gbIV/IerjJ/FBKlQpQ5g5Be55tJpXAKxpWVXFhrZaABhOzy8KtfQLqmJvINQT7o8CPp379re40JoqAwgzW6Z0NXsUefFstJxZLfVKP9hGqEa89lJchxW9hRDgvSjCiQtEON4Ac8qBKisIP38KXAKt5lxUuuwWhlvOCFwHC1Xx56iQW7KA0LHC8f8ww3GzaWrLEB6oS5UzhF3vouq8eCMgOiSb62CbqhLezxbuKQDxhr1BKMKxvweIV8PH4r9HcZsRRQj/tkXdgBbzZX0KHGAam0VWrJBNrf3szuc1DtwLhCM0fMh9bD0pQvglp8DpvPgHieqWzUHFFEUIc58X1yHv3WsbyVnZHFRMUYQw97s0krJzy9QofvMUIQywMgLCt/B3fw+5b7A03Up9qBRFEcJA7PwREApbuAOjh37E6QWKEAZn9xbZ1DoFFXIARwRFCAMyAFwFny8ttS/aVJ5wRhHCwPKintKwnPlRU/Xn6KAIYXD+S1Qo7v+jCGGhPpWJogghIaQIISGkKEJICClCSAgpihASQooQEkKKIoSEkCKEhJCiCCEhpAghIaQoQkgIKUJICCmKEBJCihASQooihISQIoSEkKIIISGkCCEhpChCSAgpQkgIKYoQEkKKEBJCiiKEhJAihISQogghIaQIISGkKEJICClCSAgpihASQooQEkKKIoSEkCKEhJCiCCEhpAghIaQoQkgIKUJICCmKEBJCqkAgvBGDbhPBI4RUQLKF+iYG3XIPxA4CSAipABSNpEZL4fw7Bt87cDshJIRUUDBazgxUxvsxCB14JyGkqGDa00r4dNtylmIwpgghRQVRERvaKuXs1V+RpvoXDMhl8AZCSFFBwGiq2qhQjdJybsDAfA3eRggpKgA1G8nBtumegDZ1EQboe2WQFwkhVaB50XLGws0YpPrmzWpCSFHB5MVqabphaakFGKzPwhsJIUUFAaPlDEVWPBwD9lq0qW/h53ZCSFFBtKimGou8OA8D95fwGkJIUcG0qDWohpNgG/4dBvFmQkhRQcAYSdVJ4TQgL14IGF8v4ruohJAq/rwICCPw1bblfEQIKSq4vDgaefEYKdQDhJCigsuL1dJUE6RwT5eW8wYhpKhgsmJF1Ej2B4Qh5MUfoU1dSwgpKpisWAkQB2GQz0JWTMBbCCFFBZEVLadKGslh0nRPxIB/nhBSVDBZsQIgVkVNNRrV8YcY+H8poOM1CCFVhtXRVGFkxdu9jcQ7CCFFBVMd+wPEo9Gu/hYgrA1wsp8QUmUOYyQ1TAolAcNz3i6NTwkhRQUBo+Xo9ajXAoo34a2EkKKCy4sGWtQY4PirT1WREFLUF+TFAQDx2wBkCbyOEFJUcHnxK9JyLgMoz8BbCCFFBZMVK72Dim/xToHbQQgpKoisKJSe0pgLL/TyIiGkqACyYqVs0s/SSE9pPJyjvEgIKSprGE3VTwrnYLtzl8bTfcyLhJCieivvoOLD0qfAWWpFL/MiIaSoPudFyxmdntLozIspQkhRQbSokVQtsuJkaamzpOU8nsWDbQghReUURssZBAi/iqp4Earjyh6suiGEFJWXFtVUw5EX9anh18PrCSFFBVEVG9qqUQ3HSOEeJ4XzYDePByeEFOVPXnT2Q5t6hndQMSGkqIDyYh0gHO8dVLyJEFJUUHlRqEEykpohhYoRQooKJitWRGevqZSmOyhqJENoV/flVcle/w8fzf668seFPQAAACV0RVh0ZGF0ZTpjcmVhdGUAMjAyMi0xMC0yOVQxNTozOTozNCswMDowMNH7NnMAAAAldEVYdGRhdGU6bW9kaWZ5ADIwMjItMTAtMjlUMTU6Mzk6MzQrMDA6MDCgpo7PAAAAAElFTkSuQmCC;" vertex="1" parent="1">
          <mxGeometry x="200" y="405.78" width="25" height="28.44" as="geometry" />
        </mxCell>
        <mxCell id="zkTMenMnNY8oFGBPqEzL-15" value="push" style="text;html=1;align=center;verticalAlign=middle;resizable=0;points=[];autosize=1;strokeColor=none;fillColor=none;" vertex="1" parent="1">
          <mxGeometry x="270" y="340" width="50" height="30" as="geometry" />
        </mxCell>
        <mxCell id="zkTMenMnNY8oFGBPqEzL-16" value="branch == main" style="text;html=1;align=center;verticalAlign=middle;resizable=0;points=[];autosize=1;strokeColor=none;fillColor=none;" vertex="1" parent="1">
          <mxGeometry x="152.5" y="340" width="120" height="30" as="geometry" />
        </mxCell>
        <mxCell id="zkTMenMnNY8oFGBPqEzL-17" value="" style="endArrow=classic;html=1;rounded=0;entryX=0.5;entryY=0;entryDx=0;entryDy=0;" edge="1" parent="1" target="zkTMenMnNY8oFGBPqEzL-13">
          <mxGeometry width="50" height="50" relative="1" as="geometry">
            <mxPoint x="270" y="320" as="sourcePoint" />
            <mxPoint x="290" y="300" as="targetPoint" />
          </mxGeometry>
        </mxCell>
        <mxCell id="zkTMenMnNY8oFGBPqEzL-18" value="Proces CI&lt;br&gt;zdefiniowany w gitlab" style="text;html=1;align=center;verticalAlign=middle;resizable=0;points=[];autosize=1;strokeColor=none;fillColor=none;" vertex="1" parent="1">
          <mxGeometry x="500" y="400" width="140" height="40" as="geometry" />
        </mxCell>
        <mxCell id="zkTMenMnNY8oFGBPqEzL-19" value="" style="shape=datastore;whiteSpace=wrap;html=1;fillColor=#dae8fc;strokeColor=#6c8ebf;" vertex="1" parent="1">
          <mxGeometry x="180" y="440" width="20" height="28.44" as="geometry" />
        </mxCell>
        <mxCell id="zkTMenMnNY8oFGBPqEzL-20" value="terraform &lt;br&gt;state" style="text;html=1;align=center;verticalAlign=middle;resizable=0;points=[];autosize=1;strokeColor=#6c8ebf;fillColor=#dae8fc;" vertex="1" parent="1">
          <mxGeometry x="110" y="490" width="70" height="40" as="geometry" />
        </mxCell>
        <mxCell id="zkTMenMnNY8oFGBPqEzL-21" style="edgeStyle=orthogonalEdgeStyle;rounded=0;orthogonalLoop=1;jettySize=auto;html=1;fillColor=#dae8fc;strokeColor=#6c8ebf;" edge="1" parent="1" source="zkTMenMnNY8oFGBPqEzL-23">
          <mxGeometry relative="1" as="geometry">
            <mxPoint x="190" y="470" as="targetPoint" />
          </mxGeometry>
        </mxCell>
        <mxCell id="zkTMenMnNY8oFGBPqEzL-22" style="edgeStyle=orthogonalEdgeStyle;rounded=0;orthogonalLoop=1;jettySize=auto;html=1;" edge="1" parent="1" source="zkTMenMnNY8oFGBPqEzL-23" target="zkTMenMnNY8oFGBPqEzL-24">
          <mxGeometry relative="1" as="geometry" />
        </mxCell>
        <mxCell id="zkTMenMnNY8oFGBPqEzL-23" value="terraform apply" style="rounded=0;whiteSpace=wrap;html=1;" vertex="1" parent="1">
          <mxGeometry x="210" y="630" width="120" height="60" as="geometry" />
        </mxCell>
        <mxCell id="zkTMenMnNY8oFGBPqEzL-24" value="" style="image;aspect=fixed;perimeter=ellipsePerimeter;html=1;align=center;shadow=0;dashed=0;spacingTop=3;image=img/lib/active_directory/web_server.svg;" vertex="1" parent="1">
          <mxGeometry x="430" y="635" width="40" height="50" as="geometry" />
        </mxCell>
        <mxCell id="zkTMenMnNY8oFGBPqEzL-25" value="change&lt;br&gt;infrastructure" style="text;html=1;align=center;verticalAlign=middle;resizable=0;points=[];autosize=1;strokeColor=none;fillColor=none;" vertex="1" parent="1">
          <mxGeometry x="335" y="620" width="90" height="40" as="geometry" />
        </mxCell>
      </root>
    </mxGraphModel>
  </diagram>
</mxfile>
